<svg width="1440" height="1221" viewBox="0 0 1440 1221" fill="none" xmlns="http://www.w3.org/2000/svg">
<path d="M1272.36 466V118C1272.36 52.9427 1219.42 0 1154.36 0H285.627C220.569 0 167.627 52.9427 167.627 118V465.987C71.6267 485.331 0 570.055 0 670.707V967.88H59.5987V1188.75C59.5987 1206.41 73.9373 1220.75 91.5987 1220.75C109.26 1220.75 123.599 1206.41 123.599 1188.75V967.88H1316.4V1188.75C1316.4 1206.41 1330.74 1220.75 1348.4 1220.75C1366.06 1220.75 1380.4 1206.41 1380.4 1188.75V967.88H1440V670.707C1440 569.904 1368.41 485.307 1272.37 466H1272.36ZM285.627 64.0133H1154.36C1184.14 64.0133 1208.36 88.2373 1208.36 118.013L1208.37 476.773H1144.19V303.813C1144.19 268.116 1115.15 239.064 1079.44 239.064H848.732C813.019 239.064 783.983 268.105 783.983 303.813V476.773H656.013V303.813C656.013 268.116 626.972 239.064 591.264 239.064H360.557C324.86 239.064 295.808 268.105 295.808 303.813L295.803 476.773H231.625V118.013C231.625 88.2213 255.849 64.0133 285.625 64.0133H285.627ZM831.987 470.093V303.8C831.987 294.566 839.507 287.051 848.736 287.051H1079.44C1088.68 287.051 1096.19 294.571 1096.19 303.8V470.107L831.992 470.112L831.987 470.093ZM343.813 470.093V303.8C343.813 294.566 351.334 287.051 360.563 287.051H591.269C600.519 287.051 608.019 294.571 608.019 303.8V470.107L343.819 470.112L343.813 470.093ZM192.32 526.765C194.659 527.468 197.07 527.948 199.633 527.948H1240.37C1242.93 527.948 1245.36 527.453 1247.69 526.765C1320.29 535.099 1376 596.604 1376 670.699V764.267H64.0007V670.699C64.0007 596.699 119.746 535.112 192.318 526.765H192.32ZM64.0027 903.872V804.257H1376V903.872H64.0027Z" fill="black"/>
</svg>
