<svg width="1477" height="1157" viewBox="0 0 1477 1157" fill="none" xmlns="http://www.w3.org/2000/svg">
<path d="M953.853 1063.91H523.08C234.653 1063.91 0 829.271 0 540.831C0 523.825 13.76 510.06 30.7707 510.06H1446.1C1463.11 510.06 1476.87 523.82 1476.87 540.831C1476.87 829.257 1242.23 1063.91 953.795 1063.91H953.853ZM62.5733 571.604C78.4693 811.804 278.947 1002.38 523.093 1002.38H953.867C1198.01 1002.38 1398.48 811.817 1414.39 571.604H62.5733Z" fill="black"/>
<path d="M492.307 1156.22C475.301 1156.22 461.536 1142.46 461.536 1125.45V1033.14C461.536 1016.13 475.296 1002.37 492.307 1002.37C509.312 1002.37 523.077 1016.13 523.077 1033.14V1125.45C523.077 1142.46 509.317 1156.22 492.307 1156.22Z" fill="black"/>
<path d="M982.667 1156.22C965.661 1156.22 951.896 1142.46 951.896 1125.45V1033.14C951.896 1016.13 965.656 1002.37 982.667 1002.37C999.672 1002.37 1013.44 1016.13 1013.44 1033.14V1125.45C1013.43 1142.46 999.672 1156.22 982.667 1156.22Z" fill="black"/>
<path d="M837.106 294.684C780.705 294.684 736.508 236.632 736.508 162.501C736.508 96.4227 806.461 18.2347 814.425 9.5547C826.081 -3.1849 848.138 -3.1849 859.8 9.5547C867.763 18.237 937.742 96.424 937.742 162.501C937.742 236.632 893.54 294.684 837.106 294.684ZM837.106 79.0574C817.366 105.979 798.044 139.693 798.044 162.5C798.044 202.943 818.658 233.14 837.106 233.14C855.554 233.14 876.2 202.943 876.2 162.5C876.2 139.693 856.882 105.979 837.106 79.0574Z" fill="black"/>
<path d="M521.134 448.524C464.702 448.524 420.503 390.472 420.503 316.341C420.503 250.263 490.487 172.075 498.446 163.395C504.274 157.025 512.508 153.421 521.134 153.421C529.759 153.421 537.994 157.025 543.822 163.395C551.785 172.077 621.739 250.264 621.739 316.341C621.739 390.472 577.536 448.524 521.135 448.524H521.134ZM521.076 232.991C501.336 259.881 482.046 293.569 482.046 316.345C482.046 356.788 502.686 386.985 521.139 386.985C539.587 386.985 560.202 356.788 560.202 316.345C560.196 293.205 540.098 259.043 521.076 232.991Z" fill="black"/>
</svg>
