<svg width="1600" height="1600" viewBox="0 0 1600 1600" fill="none" xmlns="http://www.w3.org/2000/svg">
<g clip-path="url(#clip0_1028_31)">
<path d="M1597.2 811.053C1597.97 809.579 1598.57 808.032 1599.02 806.434C1599.11 805.225 1599.11 804.012 1599.02 802.808C1599.63 799.647 1599.63 796.397 1599.02 793.236C1598.58 791.637 1597.97 790.09 1597.2 788.616C1596.37 787.032 1595.38 785.543 1594.23 784.163C1594.23 784.163 1594.23 782.845 1593.07 782.35L1329.1 518.377H1329.11C1322.79 512.491 1313.86 510.325 1305.55 512.653C1297.24 514.986 1290.74 521.486 1288.41 529.798C1286.08 538.11 1288.24 547.038 1294.13 553.35L1515.87 775.417H824.92V83.9769L1047.48 306.377C1052.06 311.288 1058.43 314.127 1065.15 314.247C1071.86 314.366 1078.33 311.752 1083.08 307.002C1087.83 302.252 1090.45 295.783 1090.33 289.065C1090.21 282.351 1087.37 275.976 1082.45 271.398L817.654 6.77116C817.654 6.77116 816.336 6.77116 815.841 5.45345V5.44824C814.513 4.37012 813.076 3.42744 811.55 2.64611C810.029 1.86485 808.425 1.25544 806.768 0.828373H803.305C801.274 0.57316 799.227 0.57316 797.195 0.828373H793.732C792.07 1.31275 790.466 1.9742 788.951 2.81277C787.425 3.59403 785.987 4.53677 784.659 5.61491C784.659 5.61491 783.341 5.61491 782.846 6.93261L518.046 270.906C513.13 275.484 510.291 281.859 510.171 288.573C510.052 295.291 512.666 301.76 517.416 306.51C522.166 311.26 528.64 313.874 535.354 313.755C542.067 313.635 548.442 310.796 553.02 305.88L775.42 83.9731V775.413H84.4736L306.714 552.52C312.599 546.202 314.766 537.274 312.432 528.962C310.104 520.65 303.604 514.156 295.292 511.822C286.98 509.489 278.052 511.661 271.735 517.546L7.76174 781.52L7.76694 781.515C3.13148 786.155 0.527344 792.447 0.527344 799.004C0.527344 805.561 3.13148 811.853 7.76694 816.493L271.74 1081.29H271.735C276.313 1086.2 282.693 1089.04 289.407 1089.16C296.121 1089.28 302.595 1086.67 307.339 1081.92C312.089 1077.17 314.704 1070.7 314.584 1063.99C314.469 1057.27 311.625 1050.89 306.714 1046.31L84.4741 824.914H775.421V1515.53L552.861 1293.13C548.283 1288.22 541.908 1285.38 535.194 1285.26C528.481 1285.14 522.007 1287.75 517.257 1292.5C512.512 1297.25 509.897 1303.72 510.012 1310.43C510.132 1317.15 512.976 1323.53 517.887 1328.11L782.687 1592.08C787.328 1596.71 793.619 1599.31 800.176 1599.31C806.733 1599.31 813.02 1596.71 817.66 1592.08L1082.46 1328.11C1088.35 1321.79 1090.52 1312.86 1088.18 1304.55C1085.85 1296.24 1079.36 1289.74 1071.04 1287.41C1062.73 1285.08 1053.8 1287.24 1047.49 1293.13L824.927 1515.53V824.915H1515.87L1293.63 1047.15C1287.75 1053.47 1285.58 1062.39 1287.91 1070.71C1290.25 1079.02 1296.74 1085.52 1305.05 1087.85C1313.37 1090.18 1322.29 1088.01 1328.61 1082.13L1592.59 817.328C1592.59 817.328 1592.59 816.172 1593.74 815.515H1593.74C1595.05 814.161 1596.22 812.667 1597.2 811.057L1597.2 811.053Z" fill="black"/>
</g>
<defs>
<clipPath id="clip0_1028_31">
<rect width="1600" height="1600" fill="white"/>
</clipPath>
</defs>
</svg>
